<?xml version="1.0" encoding="UTF-8" standalone="no"?>
<!-- Created with Inkscape (http://www.inkscape.org/) -->

<svg
   width="14.972829mm"
   height="8.973918mm"
   viewBox="0 0 14.972829 8.9739179"
   version="1.1"
   id="svg1"
   xmlns="http://www.w3.org/2000/svg"
   xmlns:svg="http://www.w3.org/2000/svg">
  <defs
     id="defs1" />
  <g
     id="layer1"
     transform="translate(-91.430387,-144.08666)">
    <g
       id="g264"
       transform="matrix(0.25556787,-0.0684792,0.0684792,0.25556787,-123.21863,142.94644)"
       style="fill:#000000;fill-opacity:1;stroke:#333333;stroke-width:2.83465;stroke-dasharray:none;stroke-opacity:1">
		<path
   style="fill:#000000;fill-opacity:1;stroke:#333333;stroke-width:2.83465;stroke-dasharray:none;stroke-opacity:1"
   d="m 824.522,252.145 c -1.824,0 -3.405,-0.786 -4.302,-2.164 -0.226,-0.347 -0.128,-0.812 0.219,-1.038 0.347,-0.225 0.812,-0.128 1.038,0.22 0.691,1.062 1.963,1.601 3.48,1.463 1.786,-0.155 3.394,-1.217 4.002,-2.643 1.31,-3.068 -0.828,-6.739 -3.566,-8.115 -2.701,-1.357 -6.325,-1.279 -9.939,0.213 -2.66,1.097 -5.106,2.795 -7.472,4.438 -0.558,0.388 -1.115,0.775 -1.676,1.155 -3.021,2.048 -6.34,4.022 -10.144,4.593 -7.431,1.102 -15.363,-4.43 -16.983,-11.854 -1.616,-7.408 2.94,-15.573 10.156,-18.201 3.894,-1.416 8.19,-1.164 11.494,0.676 3.645,2.031 5.947,6.015 5.729,9.914 -0.235,4.208 -3.531,7.928 -7.503,8.47 -2.257,0.306 -4.485,-0.435 -5.821,-1.938 -1.569,-1.765 -1.704,-4.471 -0.305,-6.16 0.264,-0.318 0.736,-0.363 1.056,-0.1 0.319,0.265 0.364,0.737 0.1,1.057 -0.923,1.114 -0.801,3.002 0.27,4.207 1.008,1.133 2.73,1.685 4.497,1.447 3.231,-0.44 6.015,-3.61 6.208,-7.067 0.187,-3.338 -1.807,-6.762 -4.961,-8.52 -2.929,-1.632 -6.76,-1.847 -10.25,-0.576 -6.426,2.34 -10.642,9.883 -9.204,16.471 1.461,6.694 8.601,11.697 15.295,10.689 3.508,-0.525 6.65,-2.401 9.524,-4.351 0.556,-0.377 1.109,-0.761 1.662,-1.145 2.432,-1.688 4.946,-3.435 7.755,-4.593 4.018,-1.659 8.094,-1.719 11.185,-0.166 3.404,1.71 5.933,6.154 4.272,10.045 -0.833,1.949 -2.894,3.343 -5.251,3.548 -0.19,0.017 -0.379,0.025 -0.565,0.025 z"
   id="path263" />

	</g>
  </g>
</svg>
