<?xml version="1.0" encoding="UTF-8" standalone="no"?>
<!-- Created with Inkscape (http://www.inkscape.org/) -->

<svg
   width="14.973322mm"
   height="8.9742441mm"
   viewBox="0 0 14.973322 8.9742441"
   version="1.1"
   id="svg1"
   xmlns="http://www.w3.org/2000/svg"
   xmlns:svg="http://www.w3.org/2000/svg">
  <defs
     id="defs1" />
  <g
     id="layer1"
     transform="translate(-91.431955,-144.09017)">
    <path
       style="fill:#000000;stroke:#333333;stroke-width:0.75;stroke-dasharray:none;stroke-opacity:1"
       d="m 93.065946,150.92677 c -0.0475,-0.0127 -0.0951,-0.0275 -0.14284,-0.0445 -0.58835,-0.21376 -1.01986,-0.71127 -1.09903,-1.26634 -0.15804,-1.10817 0.79261,-2.07073 1.77967,-2.27464 0.89656,-0.18516 1.93401,0.1098 2.84742,0.80842 0.63859,0.48829 1.16177,1.10675 1.6674,1.70487 0.11503,0.13601 0.23006,0.27202 0.34634,0.40644 0.60104,0.69491 1.27582,1.38959 2.136344,1.76424 1.63835,0.71537 3.80903,-0.0734 4.64062,-1.68444 0.81865,-1.58521 0.25797,-3.8016 -1.22432,-4.83975 -0.80445,-0.56343 -1.79877,-0.77096 -2.65901,-0.5547 -0.92645,0.2333 -1.670534,0.97183 -1.851324,1.83771 -0.18741,0.89672 0.30727,1.89758 1.102624,2.23121 0.43345,0.18157 0.91293,0.15859 1.24838,-0.0618 0.35623,-0.23461 0.51644,-0.70884 0.3571,-1.05668 -0.0456,-0.0996 -0.002,-0.21748 0.0979,-0.26328 0.0993,-0.0455 0.21734,-0.001 0.26305,0.0978 0.24161,0.5274 0.0223,1.21011 -0.49953,1.55349 -0.44436,0.29263 -1.0647,0.32911 -1.62063,0.0966 -0.978004,-0.41051 -1.565354,-1.58686 -1.337504,-2.67846 0.21128,-1.01138 1.072684,-1.87186 2.143304,-2.14131 0.97066,-0.24392 2.08583,-0.0141 2.98354,0.61426 1.66446,1.16586 2.2697,3.56456 1.34941,5.34714 -0.9228,1.78684 -3.33072,2.6575 -5.15181,1.86658 -0.933404,-0.40623 -1.646384,-1.13826 -2.278214,-1.86854 -0.11735,-0.13553 -0.23313,-0.27284 -0.34924,-0.40995 -0.49216,-0.58192 -1.00126,-1.18344 -1.60569,-1.64588 -0.82164,-0.62912 -1.7421,-0.89657 -2.52575,-0.73517 -0.79371,0.16424 -1.5915,0.95602 -1.46681,1.82981 0.0577,0.40607 0.39604,0.78734 0.84154,0.94945 0.37854,0.13808 0.74017,0.0888 0.98956,-0.13559 0.0813,-0.0736 0.20675,-0.0662 0.28035,0.0149 0.0731,0.0818 0.0664,0.20707 -0.0151,0.28027 -0.32373,0.29017 -0.78193,0.38297 -1.24783,0.25814 z"
       id="path262" />
  </g>
</svg>
